<svg xmlns="http://www.w3.org/2000/svg" xmlns:xlink="http://www.w3.org/1999/xlink" viewBox="0 0 512 512" style="enable-background:new 0 0 512 512" xml:space="preserve"><path style="fill:#a18fa1" d="M0 255.998C0 114.607 114.613 0 256.002 0 397.386 0 512 114.607 512 255.998 512 397.388 397.386 512 256.002 512 114.613 512 0 397.388 0 255.998z"/><defs><path id="a" d="M0 255.996C0 114.607 114.613 0 256.002 0 397.387 0 512 114.607 512 255.996 512 397.389 397.387 512 256.002 512 114.613 512 0 397.389 0 255.996z"/></defs><clipPath id="b"><use xlink:href="#a" style="overflow:visible"/></clipPath><g style="clip-path:url(#b)"><path style="fill:#e38a5b" d="M185.786 259.97c7.233 17.13 3.295 33.778-8.796 37.187-12.093 3.409-27.754-7.714-34.987-24.842-7.233-17.13-3.295-33.779 8.796-37.188 12.091-3.408 27.756 7.716 34.987 24.843zM333.019 259.97c-7.233 17.13-3.292 33.778 8.798 37.187 12.091 3.409 27.754-7.714 34.985-24.842 7.235-17.13 3.297-33.779-8.796-37.188-12.088-3.408-27.754 7.716-34.987 24.843z"/></g><ellipse style="clip-path:url(#b);fill:#3d2a3d" cx="259.404" cy="177.947" rx="126.788" ry="116.063"/><path style="clip-path:url(#b);fill:#e38a5b" d="m464.03 568.571-.058-.928c0-56.454-21.133-111.15-46.936-121.566l-109.897-44.274c-25.805-10.407-68.065-10.448-93.876-.124l-111.47 44.537c-25.826 10.339-46.958 64.973-46.958 121.427l-.057.928H464.03z"/><path style="clip-path:url(#b);fill:#e38a5b" d="M305.942 404.519c0 24.234-19.645 43.879-43.878 43.879h-5.321c-24.233 0-43.878-19.645-43.878-43.879V291.497c0-24.233 19.645-43.879 43.878-43.879h5.321c24.233 0 43.878 19.646 43.878 43.879v113.022z"/><g style="clip-path:url(#b)"><path style="fill:#f5b68c" d="M353.836 289.143c0 40.187-32.578 72.765-72.765 72.765h-43.336c-40.187 0-72.765-32.578-72.765-72.765V167.261c0-40.187 32.578-72.765 72.765-72.765h43.336c40.187 0 72.765 32.578 72.765 72.765v121.882z"/></g><g style="clip-path:url(#b)"><circle style="fill:#572020" cx="223.196" cy="253.489" r="10.919"/><circle style="fill:#572020" cx="295.611" cy="253.489" r="10.919"/></g><g style="clip-path:url(#b)"><path style="fill:#3d2a3d" d="M259.404 79.272c-61.224 0-110.856 53.793-110.856 120.155 0 22.038 5.478 42.685 15.032 60.444l11.013-93.408 169.602-.008 11.034 93.413c9.552-17.756 15.03-38.403 15.03-60.442 0-66.36-49.632-120.154-110.855-120.154z"/></g><path style="clip-path:url(#b);fill:#e38a5b" d="M275.03 274.928c-.495 8.704-7.769 15.608-16.76 15.608-7.616 0-13.977-4.982-16.07-11.81-.468 1.601-.807 3.267-.807 5.012 0 9.953 8.078 18.029 18.014 18.029 9.961 0 18.009-8.075 18.009-18.029-.001-3.225-.903-6.193-2.386-8.81z"/><path style="clip-path:url(#b);fill:#2961a5" d="M463.971 567.643c0-56.454-21.133-111.15-46.936-121.566l-87.378-35.202c-12.148 26.681-39.025 45.241-70.254 45.241-31.084 0-57.858-18.387-70.086-44.87l-87.525 34.97c-25.826 10.339-46.958 64.973-46.958 121.427l-.057.928H464.03l-.059-.928z"/><g style="clip-path:url(#b)"><path style="fill:#a91935" d="M221.505 308.509c0 .205-.013.435-.013.653 0 20.937 16.984 37.915 37.909 37.915 20.929 0 37.913-16.978 37.913-37.915 0-.218-.017-.449-.026-.653h-75.783z"/><path style="fill:#fff" d="M233.541 308.509v3.244c0 6.586 5.329 11.914 11.903 11.914h39.002c6.584 0 11.921-5.328 11.921-11.914v-3.244h-62.826z"/></g><ellipse style="clip-path:url(#b);fill:#3d2a3d" cx="258.489" cy="175.356" rx="100" ry="50.718"/></svg>